<svg width="378" height="378" xmlns="http://www.w3.org/2000/svg" xmlns:xlink="http://www.w3.org/1999/xlink" overflow="hidden"><defs><clipPath id="clip0"><rect x="0" y="0" width="378" height="378"/></clipPath><clipPath id="clip1"><rect x="104" y="-26" width="169" height="169"/></clipPath><clipPath id="clip2"><rect x="104" y="-26" width="169" height="169"/></clipPath><clipPath id="clip3"><rect x="104" y="-26" width="169" height="169"/></clipPath></defs><g clip-path="url(#clip0)"><rect x="0" y="0" width="378" height="378" fill="#B4C7E7"/><rect x="0" y="281" width="378" height="97" fill="#C5E0B4"/><text font-family="Arial Rounded MT,Arial Rounded MT_MSFontService,sans-serif" font-weight="700" font-size="72" transform="translate(11.2603 188)">IWAKURA<tspan font-family="Yu Gothic,Yu Gothic_MSFontService,sans-serif" font-size="37" x="45.7029" y="61">いわば</tspan><tspan font-family="Yu Gothic,Yu Gothic_MSFontService,sans-serif" font-size="37" x="157.703" y="61">とくらす</tspan></text><g clip-path="url(#clip1)"><g clip-path="url(#clip2)"><g clip-path="url(#clip3)"><path d="M241.665 58.324C241.136 58.324 240.432 58.324 239.904 58.324 239.904 58.324 239.904 58.324 239.904 58.324 239.904 49.6979 235.679 41.776 228.814 36.8469 221.772 31.9177 212.794 30.6854 204.696 33.5021 198.006 20.475 183.219 13.7854 169.135 17.1302 155.052 20.475 144.842 33.15 144.842 47.7615 144.842 47.7615 144.842 47.9375 144.842 48.1135 135.159 46.5292 125.477 50.5781 119.492 58.324 113.682 66.2458 112.626 76.6323 116.675 85.4344 120.9 94.2365 129.702 100.046 139.384 100.574L139.384 100.75 241.489 100.75C253.107 100.75 262.614 91.2437 262.614 79.625 262.614 68.0062 253.283 58.324 241.665 58.324Z" fill="#F2F2F2"/></g></g></g></g></svg>